<mxfile host="app.diagrams.net" modified="2023-10-08T20:43:07.910Z" agent="Mozilla/5.0 (Windows NT 10.0; Win64; x64) AppleWebKit/537.36 (KHTML, like Gecko) Chrome/117.0.0.0 Safari/537.36" etag="o1Uixh6fOdnSRMLgHh9O" version="22.0.4" type="github">
  <diagram name="Page-1" id="2YBvvXClWsGukQMizWep">
    <mxGraphModel dx="1105" dy="596" grid="1" gridSize="10" guides="1" tooltips="1" connect="1" arrows="1" fold="1" page="1" pageScale="1" pageWidth="850" pageHeight="1100" math="0" shadow="0">
      <root>
        <mxCell id="0" />
        <mxCell id="1" parent="0" />
        <mxCell id="XdnVen7jWcgTdsgJ4UyM-40" value="Interfaz de Usuario" style="html=1;overflow=block;blockSpacing=1;whiteSpace=wrap;fontSize=13.3;fontColor=#000000;fontStyle=6;align=center;spacing=0;strokeOpacity=0;fillOpacity=100;rounded=1;absoluteArcSize=1;arcSize=12;fillColor=#fa6800;strokeWidth=0.8;strokeColor=#C73500;" vertex="1" parent="1">
          <mxGeometry x="342" y="112" width="143" height="90" as="geometry" />
        </mxCell>
        <mxCell id="XdnVen7jWcgTdsgJ4UyM-41" value="Sistema" style="html=1;overflow=block;blockSpacing=1;whiteSpace=wrap;fontSize=13.3;fontColor=#000000;fontStyle=6;align=center;spacing=0;strokeOpacity=0;fillOpacity=100;rounded=1;absoluteArcSize=1;arcSize=12;fillColor=#fa6800;strokeWidth=0.8;strokeColor=#C73500;" vertex="1" parent="1">
          <mxGeometry x="612" y="112" width="143" height="90" as="geometry" />
        </mxCell>
        <mxCell id="XdnVen7jWcgTdsgJ4UyM-42" value="Alumno" style="html=1;overflow=block;blockSpacing=1;shape=umlActor;labelPosition=center;verticalLabelPosition=bottom;verticalAlign=top;whiteSpace=nowrap;fontSize=13.3;fontColor=#333333;fontStyle=2;align=center;spacing=0;strokeColor=#333333;strokeOpacity=100;fillOpacity=100;rounded=1;absoluteArcSize=1;arcSize=12;fillColor=#ffffff;strokeWidth=0.8;lucidId=Yu5MdgyV5tNR;" vertex="1" parent="1">
          <mxGeometry x="147" y="112" width="60" height="135" as="geometry" />
        </mxCell>
        <mxCell id="XdnVen7jWcgTdsgJ4UyM-43" value="c" style="html=1;jettySize=18;whiteSpace=wrap;fontSize=13;strokeColor=#333333;strokeOpacity=100;strokeWidth=0.8;rounded=1;arcSize=10;edgeStyle=orthogonalEdgeStyle;startArrow=none;endArrow=block;endFill=1;lucidId=Yu5M0A2JVvTe;" edge="1" parent="1">
          <mxGeometry width="100" height="100" relative="1" as="geometry">
            <Array as="points" />
            <mxPoint x="179" y="319" as="sourcePoint" />
            <mxPoint x="396" y="320" as="targetPoint" />
          </mxGeometry>
        </mxCell>
        <mxCell id="XdnVen7jWcgTdsgJ4UyM-44" value="SolicitarTutoria()" style="text;html=1;resizable=0;labelBackgroundColor=default;align=center;verticalAlign=middle;fontStyle=2;fontColor=#333333;fontSize=13.3;" vertex="1" parent="XdnVen7jWcgTdsgJ4UyM-43">
          <mxGeometry relative="1" as="geometry">
            <mxPoint as="offset" />
          </mxGeometry>
        </mxCell>
        <mxCell id="XdnVen7jWcgTdsgJ4UyM-45" value="" style="html=1;jettySize=18;whiteSpace=wrap;fontSize=13;strokeColor=#333333;strokeOpacity=100;strokeWidth=0.8;rounded=1;arcSize=10;edgeStyle=orthogonalEdgeStyle;startArrow=none;endArrow=block;endFill=1;lucidId=Yu5M8hheeUyh;" edge="1" parent="1">
          <mxGeometry width="100" height="100" relative="1" as="geometry">
            <Array as="points">
              <mxPoint x="431" y="462" />
            </Array>
            <mxPoint x="668.5" y="461.91" as="targetPoint" />
            <mxPoint x="430" y="462" as="sourcePoint" />
          </mxGeometry>
        </mxCell>
        <mxCell id="XdnVen7jWcgTdsgJ4UyM-46" value="EnvÃ­a solicitud para ver&amp;nbsp;&lt;br&gt;Formulario" style="text;html=1;resizable=0;labelBackgroundColor=default;align=center;verticalAlign=middle;fontStyle=2;fontColor=#333333;fontSize=13.3;" vertex="1" parent="XdnVen7jWcgTdsgJ4UyM-45">
          <mxGeometry relative="1" as="geometry">
            <mxPoint as="offset" />
          </mxGeometry>
        </mxCell>
        <mxCell id="XdnVen7jWcgTdsgJ4UyM-47" value="" style="html=1;jettySize=18;whiteSpace=wrap;fontSize=13;fontFamily=helvetica;strokeColor=#333333;strokeOpacity=100;dashed=1;fixDash=1;dashPattern=16 6;strokeWidth=0.8;rounded=0;startArrow=none;endArrow=none;exitX=0.5;exitY=1;exitPerimeter=0;entryX=0.5;entryY=0.432;entryPerimeter=0;lucidId=Yu5M4GIAFP0a;" edge="1" parent="1" source="XdnVen7jWcgTdsgJ4UyM-40" target="XdnVen7jWcgTdsgJ4UyM-48">
          <mxGeometry width="100" height="100" relative="1" as="geometry">
            <Array as="points" />
            <mxPoint x="414" y="202" as="sourcePoint" />
            <mxPoint x="413.5" y="811.9200000000003" as="targetPoint" />
          </mxGeometry>
        </mxCell>
        <mxCell id="XdnVen7jWcgTdsgJ4UyM-48" value="" style="html=1;overflow=block;blockSpacing=1;whiteSpace=wrap;fontSize=13;spacing=0;strokeColor=#f2f2f2;strokeOpacity=100;fillOpacity=100;rounded=1;absoluteArcSize=1;arcSize=12;fillColor=#ced4db;strokeWidth=0.8;lucidId=Yu5MhR-oMSno;" vertex="1" parent="1">
          <mxGeometry x="398.5" y="298" width="30" height="88" as="geometry" />
        </mxCell>
        <mxCell id="XdnVen7jWcgTdsgJ4UyM-49" value="" style="html=1;jettySize=18;whiteSpace=wrap;fontSize=13;strokeColor=#333333;strokeOpacity=100;dashed=1;fixDash=1;dashPattern=16 6;strokeWidth=0.8;rounded=1;arcSize=10;edgeStyle=orthogonalEdgeStyle;startArrow=none;endArrow=none;exitX=0.5;exitY=0.532;exitPerimeter=0;lucidId=Yu5Migy3NWk_;" edge="1" parent="1" source="XdnVen7jWcgTdsgJ4UyM-42" target="XdnVen7jWcgTdsgJ4UyM-50">
          <mxGeometry width="100" height="100" relative="1" as="geometry">
            <Array as="points" />
            <mxPoint x="182" y="540" as="targetPoint" />
            <mxPoint x="177" y="212" as="sourcePoint" />
          </mxGeometry>
        </mxCell>
        <mxCell id="XdnVen7jWcgTdsgJ4UyM-50" value="" style="html=1;overflow=block;blockSpacing=1;whiteSpace=wrap;fontSize=13;spacing=0;strokeColor=#f2f2f2;strokeOpacity=100;fillOpacity=100;rounded=1;absoluteArcSize=1;arcSize=12;fillColor=#ced4db;strokeWidth=0.8;lucidId=Yu5MhR-oMSno;" vertex="1" parent="1">
          <mxGeometry x="162" y="316" width="30" height="525" as="geometry" />
        </mxCell>
        <mxCell id="XdnVen7jWcgTdsgJ4UyM-51" value="" style="points=[[1.013,0.586,0]];html=1;overflow=block;blockSpacing=1;whiteSpace=wrap;fontSize=13;spacing=0;strokeColor=#f2f2f2;strokeOpacity=100;fillOpacity=100;rounded=1;absoluteArcSize=1;arcSize=12;fillColor=#ced4db;strokeWidth=0.8;lucidId=Yu5MsRc69goB;" vertex="1" parent="1">
          <mxGeometry x="668.5" y="426" width="30" height="138" as="geometry" />
        </mxCell>
        <mxCell id="XdnVen7jWcgTdsgJ4UyM-52" value="" style="html=1;jettySize=18;whiteSpace=wrap;fontSize=13;fontFamily=helvetica;strokeColor=#333333;strokeOpacity=100;strokeWidth=0.8;rounded=0;startArrow=none;endArrow=block;endFill=1;exitX=0;exitY=0.5;lucidId=Yu5MB3FtIlV_;exitDx=0;exitDy=0;entryX=0.953;entryY=0.628;entryDx=0;entryDy=0;entryPerimeter=0;" edge="1" parent="1" target="XdnVen7jWcgTdsgJ4UyM-59">
          <mxGeometry width="100" height="100" relative="1" as="geometry">
            <Array as="points" />
            <mxPoint x="671" y="506" as="sourcePoint" />
            <mxPoint x="430" y="506" as="targetPoint" />
          </mxGeometry>
        </mxCell>
        <mxCell id="XdnVen7jWcgTdsgJ4UyM-53" value="&lt;div style=&quot;text-align: center;&quot;&gt;&lt;font color=&quot;#333333&quot;&gt;&lt;span style=&quot;background-color: rgb(255, 255, 255);&quot;&gt;&lt;i style=&quot;&quot;&gt;&lt;span style=&quot;font-size: 13px;&quot;&gt;Respuesta de solicitud&lt;/span&gt;&lt;/i&gt;&lt;/span&gt;&lt;/font&gt;&lt;/div&gt;" style="text;whiteSpace=wrap;html=1;" vertex="1" parent="1">
          <mxGeometry x="487.0000244140625" y="487" width="128" height="38" as="geometry" />
        </mxCell>
        <mxCell id="XdnVen7jWcgTdsgJ4UyM-54" value="" style="html=1;overflow=block;blockSpacing=1;whiteSpace=wrap;fontSize=13;spacing=0;strokeColor=#f2f2f2;strokeOpacity=100;fillOpacity=100;rounded=1;absoluteArcSize=1;arcSize=12;fillColor=#ced4db;strokeWidth=0.8;lucidId=Yu5MydJHa4al;" vertex="1" parent="1">
          <mxGeometry x="398.5" y="601" width="30" height="90" as="geometry" />
        </mxCell>
        <mxCell id="XdnVen7jWcgTdsgJ4UyM-55" value="" style="html=1;overflow=block;blockSpacing=1;whiteSpace=wrap;fontSize=13;spacing=0;strokeColor=#f2f2f2;strokeOpacity=100;fillOpacity=100;rounded=1;absoluteArcSize=1;arcSize=12;fillColor=#ced4db;strokeWidth=0.8;lucidId=Yu5MydJHa4al;" vertex="1" parent="1">
          <mxGeometry x="668.5" y="872" width="30" height="113" as="geometry" />
        </mxCell>
        <mxCell id="XdnVen7jWcgTdsgJ4UyM-56" value="" style="endArrow=none;dashed=1;html=1;dashPattern=1 3;strokeWidth=2;rounded=0;entryX=0.5;entryY=1;entryDx=0;entryDy=0;exitX=0.5;exitY=0;exitDx=0;exitDy=0;" edge="1" parent="1" source="XdnVen7jWcgTdsgJ4UyM-59" target="XdnVen7jWcgTdsgJ4UyM-48">
          <mxGeometry width="50" height="50" relative="1" as="geometry">
            <mxPoint x="388.5" y="599" as="sourcePoint" />
            <mxPoint x="438.5" y="549" as="targetPoint" />
          </mxGeometry>
        </mxCell>
        <mxCell id="XdnVen7jWcgTdsgJ4UyM-57" value="" style="endArrow=none;dashed=1;html=1;rounded=0;exitX=0.5;exitY=0;exitDx=0;exitDy=0;" edge="1" parent="1" source="XdnVen7jWcgTdsgJ4UyM-55" target="XdnVen7jWcgTdsgJ4UyM-51">
          <mxGeometry width="50" height="50" relative="1" as="geometry">
            <mxPoint x="636" y="618" as="sourcePoint" />
            <mxPoint x="686" y="568" as="targetPoint" />
          </mxGeometry>
        </mxCell>
        <mxCell id="XdnVen7jWcgTdsgJ4UyM-58" value="" style="endArrow=none;dashed=1;html=1;dashPattern=1 3;strokeWidth=2;rounded=0;entryX=0.5;entryY=1;entryDx=0;entryDy=0;exitX=0.5;exitY=0;exitDx=0;exitDy=0;" edge="1" parent="1" source="XdnVen7jWcgTdsgJ4UyM-54" target="XdnVen7jWcgTdsgJ4UyM-59">
          <mxGeometry width="50" height="50" relative="1" as="geometry">
            <mxPoint x="414" y="601" as="sourcePoint" />
            <mxPoint x="414" y="386" as="targetPoint" />
          </mxGeometry>
        </mxCell>
        <mxCell id="XdnVen7jWcgTdsgJ4UyM-59" value="" style="html=1;overflow=block;blockSpacing=1;whiteSpace=wrap;fontSize=13;spacing=0;strokeColor=#f2f2f2;strokeOpacity=100;fillOpacity=100;rounded=1;absoluteArcSize=1;arcSize=12;fillColor=#ced4db;strokeWidth=0.8;lucidId=Yu5MhR-oMSno;" vertex="1" parent="1">
          <mxGeometry x="398.5" y="426" width="30" height="127" as="geometry" />
        </mxCell>
        <mxCell id="XdnVen7jWcgTdsgJ4UyM-60" value="" style="endArrow=none;dashed=1;html=1;rounded=0;exitX=0.462;exitY=0.019;exitDx=0;exitDy=0;exitPerimeter=0;" edge="1" parent="1" source="XdnVen7jWcgTdsgJ4UyM-51" target="XdnVen7jWcgTdsgJ4UyM-41">
          <mxGeometry width="50" height="50" relative="1" as="geometry">
            <mxPoint x="683.05" y="410" as="sourcePoint" />
            <mxPoint x="683.05" y="378" as="targetPoint" />
          </mxGeometry>
        </mxCell>
        <mxCell id="XdnVen7jWcgTdsgJ4UyM-61" value="" style="html=1;jettySize=18;whiteSpace=wrap;fontSize=13;strokeColor=#333333;strokeOpacity=100;strokeWidth=0.8;rounded=1;arcSize=10;edgeStyle=orthogonalEdgeStyle;startArrow=none;endArrow=block;endFill=1;lucidId=Yu5M0A2JVvTe;" edge="1" parent="1">
          <mxGeometry width="100" height="100" relative="1" as="geometry">
            <Array as="points" />
            <mxPoint x="194" y="786" as="sourcePoint" />
            <mxPoint x="398" y="787" as="targetPoint" />
          </mxGeometry>
        </mxCell>
        <mxCell id="XdnVen7jWcgTdsgJ4UyM-62" value="Completa el Formulario" style="text;html=1;resizable=0;labelBackgroundColor=default;align=center;verticalAlign=middle;fontStyle=2;fontColor=#333333;fontSize=13.3;" vertex="1" parent="XdnVen7jWcgTdsgJ4UyM-61">
          <mxGeometry relative="1" as="geometry">
            <mxPoint as="offset" />
          </mxGeometry>
        </mxCell>
        <mxCell id="XdnVen7jWcgTdsgJ4UyM-63" value="" style="html=1;overflow=block;blockSpacing=1;whiteSpace=wrap;fontSize=13;spacing=0;strokeColor=#f2f2f2;strokeOpacity=100;fillOpacity=100;rounded=1;absoluteArcSize=1;arcSize=12;fillColor=#ced4db;strokeWidth=0.8;lucidId=Yu5MydJHa4al;" vertex="1" parent="1">
          <mxGeometry x="398.5" y="751" width="30" height="90" as="geometry" />
        </mxCell>
        <mxCell id="XdnVen7jWcgTdsgJ4UyM-64" value="" style="endArrow=none;dashed=1;html=1;dashPattern=1 3;strokeWidth=2;rounded=0;entryX=0.5;entryY=1;entryDx=0;entryDy=0;exitX=0.5;exitY=0;exitDx=0;exitDy=0;" edge="1" parent="1">
          <mxGeometry width="50" height="50" relative="1" as="geometry">
            <mxPoint x="412.94000000000005" y="745" as="sourcePoint" />
            <mxPoint x="412.94000000000005" y="697" as="targetPoint" />
          </mxGeometry>
        </mxCell>
        <mxCell id="XdnVen7jWcgTdsgJ4UyM-65" value="" style="html=1;overflow=block;blockSpacing=1;whiteSpace=wrap;fontSize=13;spacing=0;strokeColor=#f2f2f2;strokeOpacity=100;fillOpacity=100;rounded=1;absoluteArcSize=1;arcSize=12;fillColor=#ced4db;strokeWidth=0.8;lucidId=Yu5MydJHa4al;" vertex="1" parent="1">
          <mxGeometry x="398.5" y="891" width="30" height="90" as="geometry" />
        </mxCell>
        <mxCell id="XdnVen7jWcgTdsgJ4UyM-66" value="" style="endArrow=none;dashed=1;html=1;dashPattern=1 3;strokeWidth=2;rounded=0;entryX=0.5;entryY=1;entryDx=0;entryDy=0;exitX=0.5;exitY=0;exitDx=0;exitDy=0;" edge="1" parent="1">
          <mxGeometry width="50" height="50" relative="1" as="geometry">
            <mxPoint x="412.9100000000001" y="889" as="sourcePoint" />
            <mxPoint x="412.9100000000001" y="841" as="targetPoint" />
          </mxGeometry>
        </mxCell>
        <mxCell id="XdnVen7jWcgTdsgJ4UyM-71" value="c" style="html=1;jettySize=18;whiteSpace=wrap;fontSize=13;strokeColor=#333333;strokeOpacity=100;strokeWidth=0.8;rounded=1;arcSize=10;edgeStyle=orthogonalEdgeStyle;startArrow=none;endArrow=block;endFill=1;lucidId=Yu5M0A2JVvTe;exitX=1;exitY=0.5;exitDx=0;exitDy=0;entryX=0.07;entryY=0.497;entryDx=0;entryDy=0;entryPerimeter=0;" edge="1" parent="1" target="XdnVen7jWcgTdsgJ4UyM-55">
          <mxGeometry width="100" height="100" relative="1" as="geometry">
            <Array as="points">
              <mxPoint x="640" y="928" />
            </Array>
            <mxPoint x="428.5" y="928.36" as="sourcePoint" />
            <mxPoint x="660" y="928.36" as="targetPoint" />
          </mxGeometry>
        </mxCell>
        <mxCell id="XdnVen7jWcgTdsgJ4UyM-89" value="Envia Solicitud Tutoria" style="edgeLabel;html=1;align=center;verticalAlign=middle;resizable=0;points=[];" vertex="1" connectable="0" parent="XdnVen7jWcgTdsgJ4UyM-71">
          <mxGeometry x="0.1764" y="2" relative="1" as="geometry">
            <mxPoint x="-20" y="2" as="offset" />
          </mxGeometry>
        </mxCell>
        <mxCell id="XdnVen7jWcgTdsgJ4UyM-74" value="" style="endArrow=none;dashed=1;html=1;dashPattern=1 3;strokeWidth=2;rounded=0;entryX=0.5;entryY=1;entryDx=0;entryDy=0;" edge="1" parent="1" source="XdnVen7jWcgTdsgJ4UyM-65">
          <mxGeometry width="50" height="50" relative="1" as="geometry">
            <mxPoint x="416.00000000000006" y="1029" as="sourcePoint" />
            <mxPoint x="416.00000000000006" y="981" as="targetPoint" />
          </mxGeometry>
        </mxCell>
        <mxCell id="XdnVen7jWcgTdsgJ4UyM-75" value="" style="html=1;overflow=block;blockSpacing=1;whiteSpace=wrap;fontSize=13;spacing=0;strokeColor=#f2f2f2;strokeOpacity=100;fillOpacity=100;rounded=1;absoluteArcSize=1;arcSize=12;fillColor=#ced4db;strokeWidth=0.8;lucidId=Yu5MydJHa4al;" vertex="1" parent="1">
          <mxGeometry x="666.5" y="598" width="30" height="90" as="geometry" />
        </mxCell>
        <mxCell id="XdnVen7jWcgTdsgJ4UyM-76" value="" style="html=1;jettySize=18;whiteSpace=wrap;fontSize=13;fontFamily=helvetica;strokeColor=#333333;strokeOpacity=100;strokeWidth=0.8;rounded=0;startArrow=none;endArrow=block;endFill=1;exitX=0;exitY=0.5;lucidId=Yu5MB3FtIlV_;exitDx=0;exitDy=0;" edge="1" parent="1" source="XdnVen7jWcgTdsgJ4UyM-78" target="XdnVen7jWcgTdsgJ4UyM-54">
          <mxGeometry width="100" height="100" relative="1" as="geometry">
            <Array as="points" />
            <mxPoint x="666.5" y="658" as="sourcePoint" />
            <mxPoint x="432" y="657" as="targetPoint" />
          </mxGeometry>
        </mxCell>
        <mxCell id="XdnVen7jWcgTdsgJ4UyM-77" value="" style="html=1;jettySize=18;whiteSpace=wrap;fontSize=13;fontFamily=helvetica;strokeColor=#333333;strokeOpacity=100;strokeWidth=0.8;rounded=0;startArrow=none;endArrow=block;endFill=1;exitX=-0.013;exitY=0.589;entryX=1.046;entryY=0.908;lucidId=Yu5MB3FtIlV_;exitDx=0;exitDy=0;entryDx=0;entryDy=0;entryPerimeter=0;exitPerimeter=0;" edge="1" parent="1" target="XdnVen7jWcgTdsgJ4UyM-78" source="XdnVen7jWcgTdsgJ4UyM-75">
          <mxGeometry width="100" height="100" relative="1" as="geometry">
            <Array as="points" />
            <mxPoint x="666.5" y="658" as="sourcePoint" />
            <mxPoint x="461" y="658" as="targetPoint" />
          </mxGeometry>
        </mxCell>
        <mxCell id="XdnVen7jWcgTdsgJ4UyM-78" value="Se muestra en pantalla el formulario" style="text;html=1;resizable=0;labelBackgroundColor=default;align=center;verticalAlign=middle;fontStyle=2;fontColor=#333333;fontSize=13.3;" vertex="1" parent="1">
          <mxGeometry x="550.9985558324728" y="650.0033376379536" as="geometry" />
        </mxCell>
        <mxCell id="XdnVen7jWcgTdsgJ4UyM-80" value="" style="endArrow=none;dashed=1;html=1;dashPattern=1 3;strokeWidth=2;rounded=0;entryX=0.5;entryY=1;entryDx=0;entryDy=0;" edge="1" parent="1" source="XdnVen7jWcgTdsgJ4UyM-55">
          <mxGeometry width="50" height="50" relative="1" as="geometry">
            <mxPoint x="682.9100000000001" y="1025" as="sourcePoint" />
            <mxPoint x="682.9100000000001" y="977" as="targetPoint" />
          </mxGeometry>
        </mxCell>
        <mxCell id="XdnVen7jWcgTdsgJ4UyM-83" value="Base de datos" style="html=1;overflow=block;blockSpacing=1;whiteSpace=wrap;fontSize=13.3;fontColor=#000000;fontStyle=6;align=center;spacing=0;strokeOpacity=0;fillOpacity=100;rounded=1;absoluteArcSize=1;arcSize=12;fillColor=#fa6800;strokeWidth=0.8;strokeColor=#C73500;" vertex="1" parent="1">
          <mxGeometry x="902" y="112" width="143" height="90" as="geometry" />
        </mxCell>
        <mxCell id="XdnVen7jWcgTdsgJ4UyM-85" value="" style="endArrow=none;dashed=1;html=1;rounded=0;exitX=0.5;exitY=1;exitDx=0;exitDy=0;entryX=0.5;entryY=1;entryDx=0;entryDy=0;" edge="1" parent="1" source="XdnVen7jWcgTdsgJ4UyM-93" target="XdnVen7jWcgTdsgJ4UyM-83">
          <mxGeometry width="50" height="50" relative="1" as="geometry">
            <mxPoint x="979" y="1198.0000000000002" as="sourcePoint" />
            <mxPoint x="974" y="247" as="targetPoint" />
          </mxGeometry>
        </mxCell>
        <mxCell id="XdnVen7jWcgTdsgJ4UyM-86" value="" style="html=1;jettySize=18;whiteSpace=wrap;fontSize=13;strokeColor=#333333;strokeOpacity=100;strokeWidth=0.8;rounded=1;arcSize=10;edgeStyle=orthogonalEdgeStyle;startArrow=none;endArrow=block;endFill=1;lucidId=Yu5M0A2JVvTe;entryX=0.007;entryY=0.444;entryDx=0;entryDy=0;entryPerimeter=0;" edge="1" parent="1">
          <mxGeometry width="100" height="100" relative="1" as="geometry">
            <Array as="points" />
            <mxPoint x="696.5" y="960" as="sourcePoint" />
            <mxPoint x="950.71" y="960.172" as="targetPoint" />
          </mxGeometry>
        </mxCell>
        <mxCell id="XdnVen7jWcgTdsgJ4UyM-87" value="Guarda en la base de datos" style="edgeLabel;html=1;align=center;verticalAlign=middle;resizable=0;points=[];" vertex="1" connectable="0" parent="XdnVen7jWcgTdsgJ4UyM-86">
          <mxGeometry x="0.0491" relative="1" as="geometry">
            <mxPoint as="offset" />
          </mxGeometry>
        </mxCell>
        <mxCell id="XdnVen7jWcgTdsgJ4UyM-93" value="" style="html=1;overflow=block;blockSpacing=1;whiteSpace=wrap;fontSize=13;spacing=0;strokeColor=#f2f2f2;strokeOpacity=100;fillOpacity=100;rounded=1;absoluteArcSize=1;arcSize=12;fillColor=#ced4db;strokeWidth=0.8;lucidId=Yu5MydJHa4al;" vertex="1" parent="1">
          <mxGeometry x="964" y="910" width="30" height="113" as="geometry" />
        </mxCell>
      </root>
    </mxGraphModel>
  </diagram>
</mxfile>
